<mxfile host="65bd71144e">
    <diagram id="QRwSTOcMIr5EaBT1BLXS" name="Page-1">
        <mxGraphModel dx="896" dy="702" grid="0" gridSize="10" guides="1" tooltips="1" connect="1" arrows="1" fold="1" page="1" pageScale="1" pageWidth="850" pageHeight="1100" math="0" shadow="0">
            <root>
                <mxCell id="0"/>
                <mxCell id="1" parent="0"/>
                <mxCell id="VZp5agezpKO9IeCwQaLW-1" value="Testing Harness" style="shape=document;whiteSpace=wrap;html=1;boundedLbl=1;" parent="1" vertex="1">
                    <mxGeometry x="365" y="20" width="120" height="80" as="geometry"/>
                </mxCell>
                <mxCell id="VZp5agezpKO9IeCwQaLW-48" style="edgeStyle=orthogonalEdgeStyle;rounded=0;orthogonalLoop=1;jettySize=auto;html=1;exitX=0;exitY=0.5;exitDx=0;exitDy=0;entryX=0;entryY=0.5;entryDx=0;entryDy=0;" parent="1" source="VZp5agezpKO9IeCwQaLW-9" target="VZp5agezpKO9IeCwQaLW-12" edge="1">
                    <mxGeometry relative="1" as="geometry">
                        <Array as="points">
                            <mxPoint x="210" y="200"/>
                            <mxPoint x="210" y="390"/>
                        </Array>
                    </mxGeometry>
                </mxCell>
                <mxCell id="VZp5agezpKO9IeCwQaLW-9" value="Header Files" style="rounded=0;whiteSpace=wrap;html=1;" parent="1" vertex="1">
                    <mxGeometry x="230" y="170" width="120" height="60" as="geometry"/>
                </mxCell>
                <mxCell id="VZp5agezpKO9IeCwQaLW-49" style="edgeStyle=orthogonalEdgeStyle;rounded=0;orthogonalLoop=1;jettySize=auto;html=1;exitX=0;exitY=0.5;exitDx=0;exitDy=0;entryX=0;entryY=0.5;entryDx=0;entryDy=0;" parent="1" source="VZp5agezpKO9IeCwQaLW-10" target="VZp5agezpKO9IeCwQaLW-12" edge="1">
                    <mxGeometry relative="1" as="geometry">
                        <Array as="points">
                            <mxPoint x="210" y="270"/>
                            <mxPoint x="210" y="390"/>
                        </Array>
                    </mxGeometry>
                </mxCell>
                <mxCell id="VZp5agezpKO9IeCwQaLW-10" value="CPP File" style="rounded=0;whiteSpace=wrap;html=1;" parent="1" vertex="1">
                    <mxGeometry x="230" y="240" width="120" height="60" as="geometry"/>
                </mxCell>
                <mxCell id="VZp5agezpKO9IeCwQaLW-31" style="edgeStyle=orthogonalEdgeStyle;rounded=0;orthogonalLoop=1;jettySize=auto;html=1;exitX=1;exitY=0.5;exitDx=0;exitDy=0;entryX=0;entryY=0.5;entryDx=0;entryDy=0;endFill=0;" parent="1" source="VZp5agezpKO9IeCwQaLW-12" target="VZp5agezpKO9IeCwQaLW-30" edge="1">
                    <mxGeometry relative="1" as="geometry"/>
                </mxCell>
                <mxCell id="VZp5agezpKO9IeCwQaLW-12" value="Compilation" style="shape=step;perimeter=stepPerimeter;whiteSpace=wrap;html=1;fixedSize=1;rotation=0;direction=east;" parent="1" vertex="1">
                    <mxGeometry x="230" y="350" width="120" height="80" as="geometry"/>
                </mxCell>
                <mxCell id="VZp5agezpKO9IeCwQaLW-25" value="Unit Test" style="shape=document;whiteSpace=wrap;html=1;boundedLbl=1;rotation=0;direction=west;" parent="1" vertex="1">
                    <mxGeometry x="365" y="150" width="120" height="80" as="geometry"/>
                </mxCell>
                <mxCell id="VZp5agezpKO9IeCwQaLW-47" style="edgeStyle=orthogonalEdgeStyle;rounded=0;orthogonalLoop=1;jettySize=auto;html=1;exitX=0.5;exitY=0;exitDx=0;exitDy=0;entryX=0.5;entryY=0;entryDx=0;entryDy=0;" parent="1" source="VZp5agezpKO9IeCwQaLW-30" target="VZp5agezpKO9IeCwQaLW-25" edge="1">
                    <mxGeometry relative="1" as="geometry"/>
                </mxCell>
                <mxCell id="VZp5agezpKO9IeCwQaLW-30" value="Testing Binary" style="rounded=1;whiteSpace=wrap;html=1;" parent="1" vertex="1">
                    <mxGeometry x="365" y="360" width="120" height="60" as="geometry"/>
                </mxCell>
                <mxCell id="VZp5agezpKO9IeCwQaLW-33" value="" style="endArrow=classic;startArrow=classic;html=1;endFill=0;startFill=0;" parent="1" source="VZp5agezpKO9IeCwQaLW-25" target="VZp5agezpKO9IeCwQaLW-1" edge="1">
                    <mxGeometry width="50" height="50" relative="1" as="geometry">
                        <mxPoint x="335" y="240" as="sourcePoint"/>
                        <mxPoint x="385" y="190" as="targetPoint"/>
                    </mxGeometry>
                </mxCell>
                <mxCell id="VZp5agezpKO9IeCwQaLW-51" style="edgeStyle=orthogonalEdgeStyle;rounded=0;orthogonalLoop=1;jettySize=auto;html=1;exitX=1;exitY=0.5;exitDx=0;exitDy=0;entryX=1;entryY=0.5;entryDx=0;entryDy=0;" parent="1" source="VZp5agezpKO9IeCwQaLW-34" target="VZp5agezpKO9IeCwQaLW-30" edge="1">
                    <mxGeometry relative="1" as="geometry"/>
                </mxCell>
                <mxCell id="VZp5agezpKO9IeCwQaLW-34" value="Testing Inputs" style="rounded=0;whiteSpace=wrap;html=1;" parent="1" vertex="1">
                    <mxGeometry x="500" y="170" width="120" height="60" as="geometry"/>
                </mxCell>
                <mxCell id="VZp5agezpKO9IeCwQaLW-50" style="edgeStyle=orthogonalEdgeStyle;rounded=0;orthogonalLoop=1;jettySize=auto;html=1;exitX=1;exitY=0.5;exitDx=0;exitDy=0;entryX=1;entryY=0.5;entryDx=0;entryDy=0;" parent="1" source="VZp5agezpKO9IeCwQaLW-40" target="VZp5agezpKO9IeCwQaLW-30" edge="1">
                    <mxGeometry relative="1" as="geometry"/>
                </mxCell>
                <mxCell id="VZp5agezpKO9IeCwQaLW-40" value="Expected Outputs" style="rounded=0;whiteSpace=wrap;html=1;" parent="1" vertex="1">
                    <mxGeometry x="500" y="240" width="120" height="60" as="geometry"/>
                </mxCell>
            </root>
        </mxGraphModel>
    </diagram>
</mxfile>